/* XPM */
static char *bb34f8a999e0449fec11069d0a37fc9bQliLadJgCg9wfBeq[] = {
/* columns rows colors chars-per-pixel */
"32 32 2 1 ",
"  c None",
". c #1BB14D",
/* pixels */
"                                ",
"               ...              ",
"             ......             ",
"            ..    .             ",
"           ..   ...             ",
"           .  ....              ",
"          .. ..      .....      ",
"    ..    .. .     .... ....    ",
"   ....   . ..    ...      ...  ",
"   .  ..  ...    .........   .  ",
"  ..  ..  ...    ....   ...  .  ",
"  ..  .    ..   ...       ....  ",
"   .  .    ..   ..         ..   ",
"   .  .     ..  .               ",
"   .. ..    ..  . ........      ",
"    .  ..    ..............     ",
"     .  ..     ...     .. ..    ",
"      .............     .. ..   ",
"       .......  .  ..    .. ..  ",
"                .  ..    .. ..  ",
"    ..         ..   ..    .  .  ",
"   ....       ...   ..    .  .  ",
"  ..  ..    ....    ...  ..  .  ",
"  ..   .........   ....  ..  .  ",
"   ..       ...    ....  .....  ",
"    ....  ....     . ..   ...   ",
"      ......      .. ..         ",
"               ....  .          ",
"              ...   ..          ",
"              .    ..           ",
"              .. ...            ",
"              ....              "
};
