/* XPM */
static char *_2083d8e111345abe1f9b8210595dce4r7aBxCYnoIYR87vk[] = {
/* columns rows colors chars-per-pixel */
"64 64 2 1 ",
"  c None",
". c #1BB14D",
/* pixels */
"                                                                ",
"                                                                ",
"                               .....                            ",
"                             ........                           ",
"                           ...........                          ",
"                          .....    ...                          ",
"                         ....       ..                          ",
"                        ....        ..                          ",
"                       ....        ...                          ",
"                       ...      .....                           ",
"                      ...    ........                           ",
"                     ....   .......                             ",
"                     ...   ....               ....              ",
"                     ...  ....            ............          ",
"                     ..   ...           ................        ",
"        .....       ...  ...          ......       ......       ",
"       .......      ...  ...         .....            ....      ",
"      ...  ....     ...  ..         ....    ...         ...     ",
"      ...   ...     ... ...        ....  .........       ...    ",
"      ..     ...    ... ...       ..................      ...   ",
"     ...    ...      .. ..        .........     .....     ...   ",
"     ...    ...      .....       .......          ....    ...   ",
"     ...    ..       .....       .....             ....  ....   ",
"     ...    ..       ......     .....               ........    ",
"     ...    ..        .....     ....                 ......     ",
"      ..    ..        .....     ...                             ",
"      ...   ..         ....     ...                             ",
"      ...   ...         ....    ..                              ",
"      ...   ...         ....   ...     ..........               ",
"       ...   ...         ....  ...  ................            ",
"       ....  ....         ....  .. ...................          ",
"        ...   ....          ..........    ......  .....         ",
"         ...   ....          .......         ....   ....        ",
"          ....  .....         .......          ....  ....       ",
"           ....   ......    ..........          ....  ....      ",
"            ................... ..  ...          ...   ...      ",
"              ................  ..   ....         ...   ...     ",
"                ...........     ..   ....         ...   ...     ",
"                               ...    ....         ...   ...    ",
"                               ...     ....        ...   ...    ",
"                              ....     .....        ..   ...    ",
"        .....                 ....     .....        ..    ..    ",
"      ........               ....      .....        ..    ..    ",
"      ........              .....      ......      ...    ..    ",
"     ...    ...           .......      ......      ...    ..    ",
"     ...     ....      .........       ......     ...     ..    ",
"     ...      .................        ... ..     ...    ...    ",
"      ...      ..........  ....        ... ..     ...    ...    ",
"      ....         ...    ....         ..  ..      ...  ....    ",
"       ....             .....         ...  ..      ........     ",
"        ......        ......          ...  ..       ......      ",
"          ................           ...   ..         ...       ",
"            ............            ....  ...                   ",
"               ......              ....   ...                   ",
"                                ......   ...                    ",
"                             ........    ...                    ",
"                            .......     ...                     ",
"                            ...        ....                     ",
"                           ...        ....                      ",
"                           ...       ....                       ",
"                           ...     .....                        ",
"                            ...........                         ",
"                            .........                           ",
"                              .....                             "
};
