/* XPM */
static char *_b3d440c28934bc5e9156f0ebf572330Wco6FSHX016I6U9w[] = {
/* columns rows colors chars-per-pixel */
"16 16 2 1 ",
"  c None",
". c #1BB14D",
/* pixels */
"                ",
"        ..      ",
"       . ..     ",
"      . ..      ",
"   .  ..   .....",
"  ... ..  .. .  ",
"      .. .    ..",
"  ..   .   .    ",
"   ..   .. .... ",
"    .......  ...",
"      .   ..  . ",
"  ..    .  .    ",
"  .    ..  .  . ",
"   . ...  ..  ..",
"         . .    ",
"        . ..    "
};
