/* XPM */
static char *daf5fb09aa75405cc1df072c5ff0e668T3B0x5uFaC7paCq9[] = {
/* columns rows colors chars-per-pixel */
"128 128 2 1 ",
"  c None",
". c #1BB14D",
/* pixels */
"                                                                                                                                ",
"                                                                                                                                ",
"                                                                                                                                ",
"                                                               ......                                                           ",
"                                                            ...........                                                         ",
"                                                         ...............                                                        ",
"                                                        .................                                                       ",
"                                                      ....................                                                      ",
"                                                    ......................                                                      ",
"                                                   ..........        ......                                                     ",
"                                                  .........           .....                                                     ",
"                                                 ........             .....                                                     ",
"                                                ........              .....                                                     ",
"                                               ........               .....                                                     ",
"                                              .......                ......                                                     ",
"                                             .......                 .....                                                      ",
"                                             ......                 ......                                                      ",
"                                            ......            ............                                                      ",
"                                           .......          .............                                                       ",
"                                           ......         ..............                                                        ",
"                                          ......         ..............                                                         ",
"                                          ......       ..............                                                           ",
"                                         ......       ..........                                                                ",
"                                         ......      ........                               ...                                 ",
"                                         .....      ........                          ................                          ",
"                                        ......      .......                        ......................                       ",
"                                        ......     .......                       ..........................                     ",
"                                        .....     .......                      ..............................                   ",
"                .......                 .....     ......                     ..................................                 ",
"               ..........               .....    ......                     ............            ............                ",
"              ............              .....    .....                    ...........                  ...........              ",
"             ..............             .....   ......                   ..........                      ..........             ",
"            ................            .....   .....                   .........                          .........            ",
"           .......   .......           ......  ......                  ........                              ........           ",
"           ......      ......          ......  ......                 .......     .............               ........          ",
"           .....       ......           .....  .....                 .......   ...................             .......          ",
"          ......        ......          .....  .....                .......  .......................            .......         ",
"          .....         ......          .....  .....                ..................................           ......         ",
"          .....         ......          .....  .....               ....................................           ......        ",
"          .....         .....           ..... ......              ...................        ...........          ......        ",
"          .....        ......           ..... ......              ...............               .........          .....        ",
"          .....        .....            ............             .............                    ........        ......        ",
"         ......        .....            ............             ............                       .......       ......        ",
"         ......       ......             ...........            ...........                          ......      ......         ",
"         ......       ......             ...........            ..........                           ..................         ",
"          .....       .....              ...........            .........                             ................          ",
"          .....       .....               ..........           ........                                ..............           ",
"          .....       .....               ..........           .......                                  ............            ",
"          .....       .....                .........           .......                                   .........              ",
"          .....       .....                .........          .......                                       ...                 ",
"          ......      ......                .........         ......                                                            ",
"          ......      ......                .........         ......                                                            ",
"           .....       .....                 .........        .....                                                             ",
"           ......      .....                  ........        .....                                                             ",
"           ......      ......                 .........      .....             ...............                                  ",
"            ......      .....                  ........      .....          .....................                               ",
"            ......      ......                  ........     .....       ...........................                            ",
"             ......     .......                  ........    .....     ...............................                          ",
"             ......      .......                  ........   .....   ...................................                        ",
"              ......      ......                   ........  ....  ......................................                       ",
"              .......     .......                   ........ .................................  ...........                     ",
"               .......     .......                    ....................         ............   ..........                    ",
"                .......     .......                    ................               ..........    .........                   ",
"                ........     ........                    ............                   .........     ........                  ",
"                 ........     .........                    ..........                     .........    ........                 ",
"                  .........    .........                   .............                    ........    ........                ",
"                   .........    ...........              ................                    ........     .......               ",
"                    ..........    ............        .....................                   .......      ......               ",
"                      ..........   ................................ ........                   .......     .......              ",
"                       ............ .........................  ....   .......                   .......     ......              ",
"                        ....................................   ....    .......                   ......      ......             ",
"                           ...............................    .....     ........                  ......      ......            ",
"                            ............................      .....      ........                 ......      ......            ",
"                               ......................         .....      ........                  ......      ......           ",
"                                  ................            .....       ........                  .....      ......           ",
"                                                             ......        ........                 ......      .....           ",
"                                                             ......        ........                 ......      ......          ",
"                                                            .......         ........                 .....       .....          ",
"                                                            ......          .........                .....       .....          ",
"                                                           .......          .........                ......      .....          ",
"                 .....                                     .......           .........               ......      ......         ",
"              ..........                                  ........           .........               ......      ......         ",
"            .............                                ........            ..........              ......       .....         ",
"           ...............                              .........            ..........              ......       .....         ",
"          .................                            ..........            ...........             .....        .....         ",
"          ........  ........                         ...........             ...........             .....        .....         ",
"         .......      ......                        ............             ...........             .....        .....         ",
"         ......       ........                    ..............             ...........            ......        .....         ",
"         .....         ........                 ...............              ............           .....         .....         ",
"         .....          ..........           .................               .....  .....          ......        ......         ",
"         ......          .....................................               .....  .....          .....         ......         ",
"         ......            .......................... .......                .....  .....          .....         .....          ",
"          ......            ........................  ......                 .....  .....          .....         .....          ",
"          ......              ....................   .......                 .....  .....          .....        ......          ",
"           .......              ...............     .......                 ......  .....          ......       ......          ",
"           ........                               ........                  .....   .....           ......     ......           ",
"            .........                           .........                  ......   .....           ........ ........           ",
"             .........                         .........                   ......   .....            ...............            ",
"              ..........                     ..........                   ......    .....             .............             ",
"               ............               ...........                     ......    .....              ...........              ",
"                 ..............       ..............                     ......    ......               .........               ",
"                   ...............................                      .......    ......                  ....                 ",
"                     ...........................                       .......     ......                                       ",
"                       .......................                        .......      .....                                        ",
"                         ...................                         ........     ......                                        ",
"                             ...........                            ........      ......                                        ",
"                                                                 ..........       .....                                         ",
"                                                            ..............       ......                                         ",
"                                                         ...............        ......                                          ",
"                                                        ...............         ......                                          ",
"                                                       ..............          ......                                           ",
"                                                       ............           .......                                           ",
"                                                      ........               .......                                            ",
"                                                      ......                 ......                                             ",
"                                                     ......                ........                                             ",
"                                                     ......               ........                                              ",
"                                                     .....               ........                                               ",
"                                                     .....             .........                                                ",
"                                                     .....            .........                                                 ",
"                                                     ......         ..........                                                  ",
"                                                      .......   ............                                                    ",
"                                                      .....................                                                     ",
"                                                       ..................                                                       ",
"                                                        ...............                                                         ",
"                                                         ............                                                           ",
"                                                           .......                                                              ",
"                                                                                                                                ",
"                                                                                                                                "
};
